<svg width="224" height="42" viewBox="0 0 224 42" fill="none" xmlns="http://www.w3.org/2000/svg">
<path d="M16.6666 20H23.3333" stroke="#662380" stroke-width="2.5" stroke-linecap="round" stroke-linejoin="round"/>
<path d="M16.6666 13.3333H23.3333" stroke="#662380" stroke-width="2.5" stroke-linecap="round" stroke-linejoin="round"/>
<path d="M23.3333 35V30C23.3333 29.1159 22.9821 28.2681 22.357 27.643C21.7319 27.0178 20.884 26.6667 20 26.6667C19.1159 26.6667 18.2681 27.0178 17.6429 27.643C17.0178 28.2681 16.6666 29.1159 16.6666 30V35" stroke="#662380" stroke-width="2.5" stroke-linecap="round" stroke-linejoin="round"/>
<path d="M10 16.6667H6.66671C5.78265 16.6667 4.93481 17.0178 4.30968 17.643C3.68456 18.2681 3.33337 19.1159 3.33337 20V31.6667C3.33337 32.5507 3.68456 33.3986 4.30968 34.0237C4.93481 34.6488 5.78265 35 6.66671 35H33.3334C34.2174 35 35.0653 34.6488 35.6904 34.0237C36.3155 33.3986 36.6667 32.5507 36.6667 31.6667V15C36.6667 14.1159 36.3155 13.2681 35.6904 12.643C35.0653 12.0178 34.2174 11.6667 33.3334 11.6667H30" stroke="#662380" stroke-width="2.5" stroke-linecap="round" stroke-linejoin="round"/>
<path d="M10 35V8.33333C10 7.44928 10.3512 6.60143 10.9763 5.97631C11.6014 5.35119 12.4493 5 13.3333 5H26.6667C27.5507 5 28.3986 5.35119 29.0237 5.97631C29.6488 6.60143 30 7.44928 30 8.33333V35" stroke="#662380" stroke-width="2.5" stroke-linecap="round" stroke-linejoin="round"/>
<path d="M61.8691 32.7695L63.8555 33.209L63.7148 34H58.7051L59.2148 31.2578C57.2344 33.332 55.4238 34.3691 53.7832 34.3691C52.3652 34.3691 51.2227 33.8477 50.3555 32.8047C49.5 31.7617 49.0723 30.3262 49.0723 28.498C49.0723 26.4473 49.5176 24.5312 50.4082 22.75C51.3105 20.957 52.5117 19.5625 54.0117 18.5664C55.5117 17.5586 57.1406 17.0547 58.8984 17.0547C60.3164 17.0547 61.6523 17.3008 62.9062 17.793L63.6973 17.1953H64.6465L61.8691 32.7695ZM61.3594 19.2871C60.9023 18.9707 60.4746 18.7539 60.0762 18.6367C59.6777 18.5078 59.1855 18.4434 58.5996 18.4434C57.4277 18.4434 56.3496 18.8887 55.3652 19.7793C54.3926 20.6582 53.625 21.8477 53.0625 23.3477C52.5 24.8477 52.2188 26.4121 52.2188 28.041C52.2188 29.2949 52.4766 30.2969 52.9922 31.0469C53.5078 31.7969 54.2109 32.1719 55.1016 32.1719C56.4258 32.1719 57.873 31.3574 59.4434 29.7285L61.3594 19.2871ZM71.0449 32.7695L73.8047 33.209L73.6641 34H67.916L72.082 10.2344L69.8145 9.8125L69.9551 9.02148H75.2109L71.0449 32.7695ZM83.3848 32.1191C84.2285 32.1191 85.0547 32.002 85.8633 31.7676C86.6836 31.5332 87.3691 31.2344 87.9199 30.8711L90.0469 18.8652C88.8516 18.5488 87.6562 18.3906 86.4609 18.3906C85.3008 18.3906 84.2461 18.8184 83.2969 19.6738C82.3594 20.5176 81.6211 21.6895 81.082 23.1895C80.5547 24.6777 80.291 26.2715 80.291 27.9707C80.291 29.3301 80.5547 30.3613 81.082 31.0645C81.6211 31.7676 82.3887 32.1191 83.3848 32.1191ZM87.8145 32.1191C86.9121 32.7988 85.9629 33.3438 84.9668 33.7539C83.9707 34.1523 83.0391 34.3516 82.1719 34.3516C80.5664 34.3516 79.3359 33.8535 78.4805 32.8574C77.6367 31.8613 77.2148 30.3789 77.2148 28.4102C77.2148 26.2656 77.6367 24.3203 78.4805 22.5742C79.3242 20.8164 80.5078 19.457 82.0312 18.4961C83.5664 17.5234 85.3008 17.0371 87.2344 17.0371C88.0547 17.0371 89.0625 17.1191 90.2578 17.2832C91.4648 17.4355 92.4375 17.5996 93.1758 17.7754L89.0801 40.416L91.207 40.8379L91.0664 41.6641H85.9512L87.1641 34.9668C87.3516 33.9473 87.5684 32.998 87.8145 32.1191ZM98.7305 30.6074C98.7305 31.1348 98.8711 31.5625 99.1523 31.8906C99.4336 32.2188 99.8789 32.3828 100.488 32.3828C101.367 32.3828 102.316 32.0195 103.336 31.293C104.355 30.5547 105.193 29.6523 105.85 28.5859L107.801 17.4766H110.719L108.029 32.7695L110.104 33.209L109.963 34H105.076L105.551 30.6074C104.578 31.8613 103.564 32.8105 102.51 33.4551C101.455 34.0996 100.412 34.4219 99.3809 34.4219C98.1973 34.4219 97.3066 34.1055 96.709 33.4727C96.1113 32.8281 95.8125 31.9082 95.8125 30.7129C95.8125 30.5371 95.8418 30.2266 95.9004 29.7812C95.9707 29.3242 96.6035 25.627 97.7988 18.6895L95.8477 18.2676L95.9883 17.4766H100.928L99.1348 27.6895C98.8652 29.166 98.7305 30.1387 98.7305 30.6074ZM117.152 32.7695L119.912 33.209L119.771 34H114.023L116.713 18.707L114.445 18.2676L114.586 17.4766H119.842L117.152 32.7695ZM120.932 12.0801C120.932 12.5957 120.744 13.041 120.369 13.416C119.994 13.791 119.543 13.9785 119.016 13.9785C118.5 13.9785 118.055 13.791 117.68 13.416C117.305 13.041 117.117 12.5957 117.117 12.0801C117.117 11.5527 117.305 11.1016 117.68 10.7266C118.055 10.3516 118.5 10.1641 119.016 10.1641C119.543 10.1641 119.994 10.3516 120.369 10.7266C120.744 11.1016 120.932 11.5527 120.932 12.0801ZM127.084 32.7695L129.844 33.209L129.703 34H123.955L128.121 10.2344L125.854 9.8125L125.994 9.02148H131.25L127.084 32.7695ZM145.928 32.7695L147.914 33.209L147.773 34H142.764L143.273 31.2578C141.293 33.332 139.482 34.3691 137.842 34.3691C136.424 34.3691 135.281 33.8477 134.414 32.8047C133.559 31.7617 133.131 30.3262 133.131 28.498C133.131 26.4473 133.576 24.5312 134.467 22.75C135.369 20.957 136.57 19.5625 138.07 18.5664C139.57 17.5586 141.199 17.0547 142.957 17.0547C144.375 17.0547 145.711 17.3008 146.965 17.793L147.756 17.1953H148.705L145.928 32.7695ZM145.418 19.2871C144.961 18.9707 144.533 18.7539 144.135 18.6367C143.736 18.5078 143.244 18.4434 142.658 18.4434C141.486 18.4434 140.408 18.8887 139.424 19.7793C138.451 20.6582 137.684 21.8477 137.121 23.3477C136.559 24.8477 136.277 26.4121 136.277 28.041C136.277 29.2949 136.535 30.2969 137.051 31.0469C137.566 31.7969 138.27 32.1719 139.16 32.1719C140.484 32.1719 141.932 31.3574 143.502 29.7285L145.418 19.2871Z" fill="#662380"/>
<path d="M159 8C159 5.79086 160.791 4 163 4H219.906C222.115 4 223.906 5.79086 223.906 8V36C223.906 38.2091 222.115 40 219.906 40H163C160.791 40 159 38.2091 159 36V8Z" fill="#662380"/>
<path d="M184.504 23.8125V28.8281L187 29.1445V30H178.305V29.1445L180.801 28.8281V23.8828L176.02 15.4453L174.25 15.1406V14.2852H182.336V15.1406L180.227 15.4453L183.812 22.0312L187.281 15.4453L185.359 15.1406V14.2852H190.703V15.1406L189.039 15.4453L184.504 23.8125ZM194.898 18.7383C197.656 18.7383 199.035 19.7539 199.035 21.7852V28.9453L200.137 29.2266V30H196.082L195.824 29.1562C195.215 29.5703 194.664 29.8516 194.172 30C193.68 30.1562 193.184 30.2344 192.684 30.2344C190.41 30.2344 189.273 29.1406 189.273 26.9531C189.273 26.125 189.441 25.4648 189.777 24.9727C190.113 24.4727 190.598 24.1055 191.23 23.8711C191.863 23.6289 192.859 23.4922 194.219 23.4609L195.648 23.4258V21.8203C195.648 20.4922 195.105 19.8281 194.02 19.8281C193.363 19.8281 192.629 20.0312 191.816 20.4375L191.371 21.8086H190.598V19.1484C191.777 18.9688 192.645 18.8555 193.199 18.8086C193.754 18.7617 194.32 18.7383 194.898 18.7383ZM195.648 24.4688L194.664 24.5039C193.906 24.5352 193.379 24.7344 193.082 25.1016C192.793 25.4688 192.648 26.0625 192.648 26.8828C192.648 27.5469 192.766 28.0352 193 28.3477C193.234 28.6602 193.539 28.8164 193.914 28.8164C194.445 28.8164 195.023 28.6797 195.648 28.4062V24.4688ZM205.152 25.0781H203.805L202.727 14.2852H206.23L205.152 25.0781ZM204.484 30.3398C203.945 30.3398 203.484 30.1523 203.102 29.7773C202.727 29.4023 202.539 28.9414 202.539 28.3945C202.539 27.8555 202.727 27.3984 203.102 27.0234C203.477 26.6406 203.938 26.4492 204.484 26.4492C205.023 26.4492 205.48 26.6367 205.855 27.0117C206.238 27.3867 206.43 27.8477 206.43 28.3945C206.43 28.9336 206.242 29.3945 205.867 29.7773C205.492 30.1523 205.031 30.3398 204.484 30.3398Z" fill="#FAF5FF"/>
</svg>
